<svg xmlns="http://www.w3.org/2000/svg" version="1.1" xmlns:xlink="http://www.w3.org/1999/xlink" xmlns:svgjs="http://svgjs.com/svgjs" width="1440" height="560" preserveAspectRatio="none" viewBox="0 0 1440 560"><g mask="url(&quot;#SvgjsMask1004&quot;)" fill="none"><rect width="1440" height="560" x="0" y="0" fill="#0e2a47"></rect><path d="M 0,130 C 57.6,157.4 172.8,277 288,267 C 403.2,257 460.8,89 576,80 C 691.2,71 748.8,228 864,222 C 979.2,216 1036.8,56.4 1152,50 C 1267.2,43.6 1382.4,162 1440,190L1440 560L0 560z" fill="rgba(25, 74, 120, 1)"></path><path d="M 0,403 C 96,426 288,526.8 480,518 C 672,509.2 768,357.4 960,359 C 1152,360.6 1344,492.6 1440,526L1440 560L0 560z" fill="rgba(4, 19, 36, 1)"></path></g><defs><mask id="SvgjsMask1004"><rect width="1440" height="560" fill="#ffffff"></rect></mask></defs></svg>